<svg width="58" height="65" fill="none" xmlns="http://www.w3.org/2000/svg"><path d="M57.184 13.25H37.453l1.842-6.996 13.311-2.866c1.048-.235.133-3.611-.926-3.376L36.02 3.388l-2.593 9.863H.903l5.592 49.325h.003l-.002.005C6.496 63.917 16.59 65 29.042 65s22.546-1.083 22.546-2.42l-.002-.004h.006l5.592-49.325zM45.514 56.5h-.021c.01.029.01.058.01.088 0 1.34-7.366 2.416-16.465 2.416s-16.477-1.076-16.477-2.416c0-.03 0-.06.01-.088L8.624 19.327h23.205l-2.14 8.14c-2.514-1.643-3.937-4.236-8.381-4.236-3.982 0-5.537 2.065-7.621 3.68l2.382 25.684c0 1.336 5.626 2.42 12.565 2.42 6.94 0 12.566-1.084 12.566-2.42 0-.007-.005-.013-.005-.02l2.799-28.688c-3.408 1.477-4.511 4.902-9.64 4.902-.341 0-.672-.01-.981-.04l2.481-9.422h13.6L45.514 56.5z" fill="#CFAE70"/></svg>