<svg width="60" height="60" fill="none" xmlns="http://www.w3.org/2000/svg"><path d="M19.375 25.454l6.55 5.052c.251 2.037 1.968 3.62 4.075 3.62A4.127 4.127 0 0034.127 30c0-.088-.02-.17-.027-.258l9.6-11.355c.67-.751.681-1.834.029-2.414-.654-.582-1.727-.443-2.395.309L31.9 26.358a4.075 4.075 0 00-1.9-.485c-.739 0-1.421.21-2.02.55l-6.167-4.295c-.796-.586-1.988-.314-2.662.605-.673.916-.574 2.136.224 2.72z" fill="#CFAE70"/><path d="M30 0a2.38 2.38 0 100 4.762c6.977 0 13.271 2.82 17.846 7.392 4.571 4.574 7.391 10.869 7.392 17.846 0 6.977-2.82 13.271-7.392 17.846-4.575 4.571-10.869 7.391-17.846 7.392-6.977 0-13.272-2.82-17.846-7.392C7.583 43.271 4.763 36.977 4.762 30a25.08 25.08 0 014.066-13.729l2.21 1.652a.878.878 0 001.384-.522l1.487-7.034a2.37 2.37 0 00.314-1.49l.673-3.18a.878.878 0 00-.332-.884.878.878 0 00-.943-.068L3.099 10.433a.878.878 0 00-.108 1.476l2.013 1.504A29.872 29.872 0 000 30c.002 16.57 13.43 29.998 30 30 16.57-.002 29.998-13.43 30-30C59.998 13.43 46.57.002 30 0z" fill="#CFAE70"/></svg>