<svg width="85" height="56" fill="none" xmlns="http://www.w3.org/2000/svg"><path d="M42.5 12.74c3.746 0 6.778-2.85 6.778-6.372C49.278 2.854 46.246 0 42.5 0c-3.742 0-6.779 2.854-6.779 6.368 0 3.522 3.037 6.372 6.78 6.372zm-.001 2.165c-3.662 0-6.634 2.79-6.634 6.231V25.8h13.27v-4.664c0-3.44-2.97-6.23-6.636-6.23zM7.852 44.58c-1.811-1.703-2.925-4.035-2.928-6.622V28.32H0v9.637c.003 7.727 6.679 13.995 14.902 14h6.73V47.33h-6.73c-2.755 0-5.234-1.047-7.05-2.75zm6.413-29.152c3.592 0 6.499-2.73 6.499-6.107 0-3.37-2.907-6.106-6.498-6.106-3.59 0-6.5 2.736-6.5 6.106 0 3.376 2.91 6.107 6.5 6.107z" fill="#CFAE70"/><path d="M29.745 36.23h-9.12V23.48c0-3.3-2.844-5.976-6.359-5.976-3.51 0-6.358 2.675-6.358 5.976v14.527c0 3.3 2.846 5.974 6.358 5.974.477 0 11.625-.03 11.625-.03l.61 8.84c.043 1.811 1.641 3.247 3.569 3.208 1.93-.04 3.457-1.541 3.413-3.352l.37-12.556c0-2.134-1.838-3.86-4.108-3.86zm50.331-7.91v9.637c-.003 2.588-1.117 4.919-2.928 6.623-1.816 1.703-4.295 2.75-7.05 2.751h-6.73v4.627h6.73c8.223-.005 14.897-6.274 14.902-14V28.32h-4.924zm-9.343-12.892c3.59 0 6.5-2.73 6.5-6.107 0-3.37-2.91-6.106-6.5-6.106-3.592 0-6.498 2.736-6.498 6.106 0 3.376 2.906 6.107 6.498 6.107z" fill="#CFAE70"/><path d="M77.093 38.007V23.48c0-3.301-2.85-5.976-6.36-5.976-3.514 0-6.359 2.675-6.359 5.976v12.75h-9.118c-2.27 0-4.11 1.726-4.11 3.86l.371 12.557c-.044 1.81 1.483 3.312 3.414 3.352 1.927.039 3.525-1.397 3.568-3.208l.61-8.84s11.148.03 11.625.03c3.512 0 6.36-2.675 6.36-5.974z" fill="#CFAE70"/><path d="M60.767 28.379H25.508v5.637h35.26V28.38zm-16.148 8.663h-4.103v13.646h4.103V37.042z" fill="#CFAE70"/></svg>