<svg width="40" height="67" fill="none" xmlns="http://www.w3.org/2000/svg"><path d="M17.323 14.734h8.441v-1.842h7.86c1.367 0 2.476-1.08 2.476-2.41V7.085C36.1 2.267 30.714 0 27.22 0H7.715v7.225c9.461 0 9.608 7.509 9.608 7.509zM5.969 0H0v7.225h5.969V0z" fill="#CFAE70"/><path d="M12.082 9.917s-1.31-1.134-4.367-1.134c0 1.983-1.019 8.5-4.657 11.192l2.037 1.984S11.209 17 12.082 9.917zm5.464 6.461c-1.185 0-2.146.934-2.146 2.088v5.42h12.373v-5.42c0-1.154-.96-2.088-2.145-2.088h-8.082zm21.093 30.185L27.919 26.2H15.255L4.535 46.563a11.782 11.782 0 00-1.361 5.493v9.321C3.174 64.483 5.76 67 8.95 67h25.274C37.414 67 40 64.483 40 61.377v-9.32c0-1.911-.466-3.794-1.361-5.494zm-1.258 14.814c0 1.695-1.416 3.072-3.157 3.072H8.95c-1.74 0-3.157-1.377-3.157-3.072v-9.32c0-1.5.372-2.997 1.074-4.332l9.99-18.976h9.46l9.99 18.976a9.332 9.332 0 011.074 4.331v9.321z" fill="#CFAE70"/><path d="M25.26 43.517c-.706-1.342-2.125-2.185-3.674-2.185-1.547 0-2.965.843-3.672 2.185l-4.052 7.696a1.82 1.82 0 00-.208.843v2.575c0 1.198.998 2.17 2.228 2.17h11.41c1.23 0 2.228-.972 2.228-2.17v-2.575c0-.29-.072-.583-.209-.842l-4.052-7.697z" fill="#CFAE70"/></svg>