<svg width="27" height="27" fill="none" xmlns="http://www.w3.org/2000/svg"><path d="M27 13.5C27 20.956 20.956 27 13.5 27S0 20.956 0 13.5 6.044 0 13.5 0 27 6.044 27 13.5z" fill="url(#paint0_linear_16433_18099)"/><path d="M27 13.5C27 20.956 20.956 27 13.5 27S0 20.956 0 13.5 6.044 0 13.5 0 27 6.044 27 13.5z" fill="url(#paint1_linear_16433_18099)"/><path d="M11.34 17.55v9.18c0 .15.12.27.27.27h3.78c.15 0 .27-.12.27-.27v-9.18c0-.15.12-.27.27-.27h2.7c.15 0 .27-.12.27-.27v-3.24a.27.27 0 00-.27-.27h-2.7a.27.27 0 01-.27-.27V10.8c0-1.08 1.35-1.62 1.89-1.62h1.62c.15 0 .27-.12.27-.27V5.67a.27.27 0 00-.27-.27h-3.51c-2.592 0-4.32 2.7-4.32 4.32v3.51c0 .15-.12.27-.27.27h-2.7a.27.27 0 00-.27.27v3.24c0 .15.12.27.27.27h2.7c.15 0 .27.12.27.27z" fill="#fff"/><defs><linearGradient id="paint0_linear_16433_18099" x1="13.5" y1="0" x2="13.5" y2="27" gradientUnits="userSpaceOnUse"><stop stop-color="#18ACFE"/><stop offset="1" stop-color="#0165E1"/></linearGradient><linearGradient id="paint1_linear_16433_18099" x1="13.5" y1="0" x2="13.5" y2="27" gradientUnits="userSpaceOnUse"><stop stop-color="#18ACFE"/><stop offset="1" stop-color="#0165E1"/></linearGradient></defs></svg>