<svg width="85" height="56" viewBox="0 0 85 56" fill="none" xmlns="http://www.w3.org/2000/svg">
<path d="M42.4992 12.7396C46.2462 12.7396 49.2783 9.88962 49.2783 6.3683C49.2783 2.85399 46.246 0 42.4992 0C38.7566 0 35.72 2.85399 35.72 6.3683C35.72 9.88978 38.7566 12.7396 42.4992 12.7396Z" fill="#CFAE70"/>
<path d="M42.4986 14.9053C38.8373 14.9053 35.8655 17.6955 35.8655 21.1363V25.7997H49.1344V21.1363C49.1344 17.6956 46.1657 14.9053 42.4986 14.9053Z" fill="#CFAE70"/>
<path d="M7.85152 44.5803C6.04062 42.8765 4.92716 40.5455 4.92434 37.9579V28.3208H0V37.9579C0.00298827 45.6848 6.67879 51.9532 14.9023 51.9587H21.6313V47.3315H14.9023C12.1465 47.3302 9.66805 46.2839 7.85152 44.5803Z" fill="#CFAE70"/>
<path d="M14.2655 15.4278C17.8574 15.4278 20.764 12.6973 20.764 9.32147C20.764 5.95142 17.8574 3.21533 14.2655 3.21533C10.6766 3.21533 7.7655 5.95142 7.7655 9.32147C7.7655 12.6971 10.6766 15.4278 14.2655 15.4278Z" fill="#CFAE70"/>
<path d="M29.7446 36.2309H20.6259V23.4803C20.6259 20.1795 17.7812 17.5044 14.2662 17.5044C10.7554 17.5044 7.90796 20.1793 7.90796 23.4803V38.007C7.90796 41.3062 10.7541 43.9813 14.2662 43.9813C14.7433 43.9813 25.8912 43.9509 25.8912 43.9509L26.5013 52.7917C26.5441 54.6024 28.1422 56.0384 30.0695 55.9994C31.9999 55.9592 33.5271 54.458 33.4827 52.6473L33.8535 40.091C33.8535 37.9569 32.0147 36.2309 29.7446 36.2309Z" fill="#CFAE70"/>
<path d="M80.0757 28.3203V37.9574C80.0727 40.5451 78.959 42.876 77.1482 44.5798C75.3316 46.2835 72.8533 47.3298 70.0988 47.331H63.3684V51.9582H70.0988C78.3209 51.9526 84.9953 45.6841 84.9998 37.9574V28.3203H80.0757Z" fill="#CFAE70"/>
<path d="M70.7334 15.4278C74.3224 15.4278 77.2335 12.6973 77.2335 9.32147C77.2335 5.95142 74.3224 3.21533 70.7334 3.21533C67.1415 3.21533 64.2349 5.95142 64.2349 9.32147C64.235 12.6971 67.1415 15.4278 70.7334 15.4278Z" fill="#CFAE70"/>
<path d="M77.0934 38.0065V23.4798C77.0934 20.179 74.2429 17.5039 70.7337 17.5039C67.2187 17.5039 64.3742 20.1789 64.3742 23.4798V36.2305H55.2555C52.9854 36.2305 51.1466 37.9564 51.1466 40.0904L51.5173 52.6467C51.473 54.4573 53.0002 55.9585 54.9306 55.9988C56.858 56.0378 58.4561 54.6016 58.4989 52.7911L59.1089 43.9503C59.1089 43.9503 70.2568 43.9807 70.7339 43.9807C74.2458 43.9808 77.0934 41.3059 77.0934 38.0065Z" fill="#CFAE70"/>
<path d="M60.7675 28.3789H25.5084V34.0162H60.7675V28.3789Z" fill="#CFAE70"/>
<path d="M44.6186 37.0425H40.5157V50.688H44.6186V37.0425Z" fill="#CFAE70"/>
</svg>
