<svg width="60" height="60" viewBox="0 0 60 60" fill="none" xmlns="http://www.w3.org/2000/svg">
<path d="M19.375 25.4539L25.9244 30.5059C26.1764 32.5427 27.8934 34.1266 29.9999 34.1266C32.2796 34.1266 34.1266 32.2785 34.1266 29.9999C34.1266 29.9116 34.1062 29.8298 34.1005 29.7423L43.6987 18.3873C44.3692 17.6358 44.3805 16.5532 43.7275 15.9728C43.0737 15.3906 42.0013 15.5302 41.3327 16.2816L31.9008 26.3578C31.3298 26.0583 30.689 25.8733 29.9998 25.8733C29.2613 25.8733 28.5788 26.0826 27.9797 26.4221L21.8126 22.128C21.0174 21.542 19.825 21.8135 19.1507 22.7325C18.4784 23.6494 18.577 24.8687 19.375 25.4539Z" fill="#CFAE70"/>
<path d="M30 0C28.6849 0 27.6191 1.06594 27.6191 2.38102C27.6191 3.69609 28.685 4.76191 30 4.76191C36.9773 4.76285 43.271 7.58285 47.846 12.154C52.4173 16.728 55.2373 23.0227 55.2381 30C55.2373 36.9773 52.4173 43.271 47.846 47.846C43.271 52.4173 36.9773 55.2371 30 55.2381C23.0228 55.2371 16.728 52.4171 12.1541 47.846C7.58285 43.271 4.76285 36.9773 4.76191 30C4.76285 24.9302 6.2584 20.2223 8.8282 16.2715L11.038 17.9231C11.2771 18.1017 11.5932 18.1464 11.8732 18.0403C12.1522 17.9344 12.3606 17.6953 12.422 17.4014L13.9091 10.3675C14.1742 9.91254 14.2876 9.38988 14.2234 8.87648L14.8958 5.69754C14.9674 5.36285 14.8363 5.01855 14.5637 4.81301C14.2893 4.60934 13.922 4.58145 13.6206 4.74516L3.09879 10.4334C2.83465 10.5776 2.66262 10.8436 2.64129 11.1421C2.61891 11.4397 2.75098 11.7299 2.99098 11.9094L5.00355 13.4133C1.84523 18.1659 -0.000820039 23.8718 2.7327e-07 30C0.00187527 46.5698 13.4302 59.9981 30 60C46.57 59.9981 59.9982 46.5698 60 30C59.9982 13.4302 46.57 0.001875 30 0Z" fill="#CFAE70"/>
</svg>
