<svg width="40" height="67" viewBox="0 0 40 67" fill="none" xmlns="http://www.w3.org/2000/svg">
<path d="M17.3226 14.734H25.7642V12.8916H33.6237C34.9915 12.8916 36.0999 11.8128 36.0999 10.4825C36.0999 10.1348 36.0999 9.22978 36.0999 7.08356C36.1 2.26662 30.7136 0 27.2204 0C23.7271 0 7.71545 0 7.71545 0V7.22515C17.1763 7.22515 17.3226 14.734 17.3226 14.734Z" fill="#CFAE70"/>
<path d="M5.96861 0H0V7.22515H5.96861V0Z" fill="#CFAE70"/>
<path d="M12.0815 9.91669C12.0815 9.91669 10.7717 8.78345 7.71542 8.78345C7.71542 10.7662 6.69625 17.2833 3.05762 19.9751L5.09488 21.9589C5.09488 21.9589 11.2086 17.0004 12.0815 9.91669Z" fill="#CFAE70"/>
<path d="M17.5463 16.3777C16.3613 16.3777 15.4004 17.312 15.4004 18.4662V23.8856H27.7735V18.4662C27.7735 17.312 26.8124 16.3777 25.6276 16.3777H17.5463Z" fill="#CFAE70"/>
<path d="M38.639 46.5627L27.9189 26.2H15.2553L4.53532 46.5627C3.63985 48.2627 3.17383 50.1459 3.17383 52.0565V61.3773C3.17383 64.4829 5.75994 66.9999 8.94976 66.9999H34.2243C37.4141 66.9999 40.0002 64.4829 40.0002 61.3773V52.0565C40.0003 50.1458 39.5343 48.2626 38.639 46.5627ZM37.3809 61.3773C37.3809 63.0721 35.9645 64.4495 34.2244 64.4495H8.94989C7.20964 64.4495 5.79342 63.0721 5.79342 61.3773V52.0565C5.79342 50.5576 6.16465 49.0598 6.86745 47.7254L16.8567 28.7494H26.3175L36.3067 47.7254C37.0095 49.0598 37.3809 50.5576 37.3809 52.0565V61.3773Z" fill="#CFAE70"/>
<path d="M25.2595 43.517C24.5536 42.1752 23.1351 41.332 21.5864 41.332C20.0388 41.332 18.6205 42.1752 17.9144 43.517L13.8625 51.2134C13.7259 51.473 13.6538 51.7653 13.6538 52.0565V54.631C13.6538 55.8293 14.6515 56.8001 15.8816 56.8001H27.2926C28.5227 56.8001 29.5202 55.8293 29.5202 54.631V52.0565C29.5202 51.7653 29.4481 51.473 29.3115 51.2143L25.2595 43.517Z" fill="#CFAE70"/>
</svg>
