<svg width="58" height="65" viewBox="0 0 58 65" fill="none" xmlns="http://www.w3.org/2000/svg">
<path d="M57.1835 13.2505H37.4527L39.2948 6.25449L52.6064 3.38764C53.6541 3.15277 52.7389 -0.223162 51.6803 0.011701L36.0191 3.38764L33.4274 13.2505H0.90332L6.49485 62.576H6.49814C6.49814 62.5775 6.49585 62.5789 6.49585 62.5807C6.49585 63.9167 16.5901 65 29.042 65C41.4939 65 51.5881 63.9167 51.5881 62.5807C51.5881 62.5789 51.5858 62.5775 51.5858 62.576H51.5917L57.1835 13.2505ZM45.5149 56.4996H45.4929C45.5038 56.5288 45.5038 56.5581 45.5038 56.5876C45.5038 57.9279 38.1367 59.0044 29.038 59.0044C19.9392 59.0044 12.561 57.9279 12.561 56.5876C12.561 56.5581 12.561 56.5288 12.5716 56.4996L8.62337 19.3268H31.8283L29.6886 27.4677C27.1742 25.8241 25.7513 23.2312 21.3068 23.2312C17.325 23.2312 15.7702 25.2957 13.6856 26.9103L16.0678 52.5954C16.0678 53.9313 21.6937 55.0146 28.6333 55.0146C35.5734 55.0146 41.1989 53.9313 41.1989 52.5954C41.1989 52.5884 41.1939 52.5817 41.1936 52.5748L43.9928 23.8868C40.5849 25.3641 39.482 28.7888 34.3536 28.7888C34.0118 28.7888 33.6809 28.7791 33.372 28.7497L35.8535 19.3268H49.4522L45.5149 56.4996Z" fill="#CFAE70"/>
</svg>
