<svg width="17" height="14" viewBox="0 0 17 14" fill="none" xmlns="http://www.w3.org/2000/svg">
<path d="M12.1431 13.0234H4.85742V14.0002H12.1431V13.0234Z" fill="white"/>
<path d="M16.5569 0H0.443561C0.199219 0 0 0.189095 0 0.419357V10.3252C0 10.5559 0.199219 10.7445 0.443561 10.7445H16.5569C16.8008 10.7445 17 10.5559 17 10.3252V0.419357C17 0.189095 16.8008 0 16.5569 0ZM8.5 0.362513C8.59184 0.362513 8.66655 0.433059 8.66655 0.519282C8.66655 0.606477 8.59184 0.676051 8.5 0.676051C8.40816 0.676051 8.33398 0.606477 8.33398 0.519282C8.33398 0.433059 8.40816 0.362513 8.5 0.362513ZM15.9437 9.53156H1.05679V1.21349H15.9437L15.9437 9.53156Z" fill="white"/>
<path d="M10.8572 11.0684H6.14285V12.2443L4.85742 12.6963H12.1431L10.8572 12.2443V11.0684Z" fill="white"/>
</svg>
